<?xml version="1.0" encoding="UTF-8"?>
<svg width="800" height="600" viewBox="0 0 800 600" xmlns="http://www.w3.org/2000/svg">
  <!-- Bakgrunn -->
  <rect width="800" height="600" fill="#2c3e50"/>
  
  <!-- Landmasse -->
  <path d="M100,100 C200,50 300,150 400,100 C500,50 600,150 700,100 L700,500 C600,450 500,550 400,500 C300,450 200,550 100,500 Z" 
        fill="#27ae60" stroke="#2ecc71" stroke-width="2"/>
  
  <!-- Fjellkjede -->
  <path d="M200,300 L250,250 L300,300 L350,200 L400,300 L450,250 L500,300" 
        fill="#95a5a6" stroke="#7f8c8d" stroke-width="2"/>
  
  <!-- Elv -->
  <path d="M100,400 C200,350 300,450 400,400 C500,350 600,450 700,400" 
        fill="none" stroke="#3498db" stroke-width="3"/>
  
  <!-- Skog -->
  <circle cx="300" cy="400" r="30" fill="#2ecc71"/>
  <circle cx="350" cy="380" r="25" fill="#2ecc71"/>
  <circle cx="320" cy="420" r="20" fill="#2ecc71"/>
  
  <!-- Ørken -->
  <path d="M500,200 C550,150 600,250 650,200 L650,300 C600,250 550,350 500,300 Z" 
        fill="#f1c40f" stroke="#f39c12" stroke-width="2"/>
</svg> 